<?xml version="1.0" encoding="utf-8"?>
<?xml-stylesheet type="text/xsl" href="rss1.xsl"?>
<rss version="2.0" xmlns:atom="http://www.w3.org/2005/Atom" xmlns:content="http://purl.org/rss/1.0/modules/content/" xmlns:dc="http://purl.org/dc/elements/1.1/" xmlns:media="http://search.yahoo.com/mrss/">
<channel>
 <title>Getty</title>
 <link>http://www.gettyimg.com/</link>
 <atom:link href="http://www.gettyimg.com/" rel="self" type="application/rss+xml" />

 
                <item>
                <title><![CDATA[【HD Live Performances】HDTV - Laura Pausini - Viña del mar (2014) [720p mkv]]]></title>
                <link><![CDATA[https://sharemania.us/threads/laura-pausini-vi%C3%B1a-del-mar-2014-720p-mkv.230413/]]></link>
                <description><![CDATA[<article>
<blockquote class="messageText SelectQuoteContainer ugc baseHtml">
<div style="text-align: center"><img src="https://www.marcomonforte.com/wp-content/uploads/2018/10/lp-vina-del-mar.jpeg" class="bbCodeImage LbImage" alt="[​IMG]" data-url="https://www.marcomonforte.com/wp-content/uploads/2018/10/lp-vina-del-mar.jpeg" style=""> ​</div>
<div class="ToggleTriggerAnchor bbCodeSpoilerContainer">
<button type="button" class="button bbCodeSpoilerButton ToggleTrigger Tooltip JsOnly" data-target="> .SpoilerTarget"><span>Spoiler: <span class="SpoilerTitle">MEDIA INFO</span></span></button>
<div class="SpoilerTarget bbCodeSpoilerText">Name : Viña Del Mar (2014).mkv<br>
Format : Matroska<br>
Format version : Version 4<br>
File size : 6.04 GiB<br>
Duration : 1 h 45 min<br>
Overall bit rate mode : Variable<br>
Overall bit rate : 8 208 kb/s<br>
Encoded date : UTC 2014-02-25 03:12:38<br>
Writing application : mkvmerge v6.3.0 ('You can't stop me!') built on Jun 28 2013 20:09:41<br>
Writing library : libebml v1.3.0 + libmatroska v1.4.0<br>
<br>
Video<br>
ID : 1<br>
Format : AVC<br>
Format/Info : Advanced Video Codec<br>
Format profile : High<br>
Format level : 4<br>
Format settings, CABAC : Yes<br>
Format settings, Referenc : 2 frames<br>
Format settings, GOP : M=3, N=30<br>
Codec ID : V_MPEG4/ISO/AVC<br>
Duration : 1 h 45 min<br>
Bit rate mode : Variable<br>
Bit rate : 7 853 kb/s<br>
Maximum bit rate : 16.2 Mb/s<br>
Width : 1 280 pixels<br>
Height : 720 pixels<br>
Display aspect ratio : 16:9<br>
Frame rate mode : Constant<br>
Frame rate : 59.940 FPS<br>
Color space : YUV<br>
Chroma subsampling : 4:2:0<br>
Bit depth : 8 bits<br>
Scan type : Progressive<br>
Bits/(Pixel*Frame) : 0.142<br>
Stream size : 5.78 GiB (96%)<br>
Default : Yes<br>
Forced : No<br>
<br>
Audio<br>
ID : 2<br>
Format : AC-3<br>
Format/Info : Audio Coding 3<br>
Commercial name : Dolby Digital<br>
Format settings : Big<br>
Codec ID : A_AC3<br>
Duration : 1 h 45 min<br>
Bit rate mode : Constant<br>
Bit rate : 192 kb/s<br>
Channel(s) : 2 channels<br>
Channel layout : L R<br>
Sampling rate : 48.0 kHz<br>
Frame rate : 31.250 FPS (1536 SPF)<br>
Compression mode : Lossy<br>
Delay relative to video : 200 ms<br>
Stream size : 145 MiB (2%)<br>
Language : Spanish<br>
Default : Yes<br>
Forced : No<br>
</div>
</div><b><br>
Setlist:</b><br>
01 Limpio<br>
02 Entre tu y mil mares<br>
03 Bienvenido<br>
04 Primavera anticipada (It Is My Song)<br>
05 En cambio no<br>
06 Volvere junto a ti<br>
07 Viveme<br>
08 Quiero decirte que te amo<br>
09 Las cosas que vives<br>
10 Escucha atento<br>
11 Emergencia de amor<br>
12 Como si no nos hubieramos amado<br>
13 Gente<br>
14 Inolvidable<br>
15 Amores extraños<br>
16 Se fue<br>
17 La soledad<br>
<br>
<div style="text-align: center">
<div class="bbCodeBlock bbCodeVfcHH HiddenContent">
<div class="attribution type">Hidden Content:</div>
<blockquote>You must reply before you can see the hidden data contained here.</blockquote>
</div></div>
<div class="messageTextEndMarker">&nbsp;</div>
</blockquote>
</article>]]></description>
                <author><![CDATA[msc93]]></author>
                </item>

                </channel></rss>